<svg xmlns="http://www.w3.org/2000/svg" viewBox="-2.0 -108.0 1127.7 116.0" class="ruach-logo" role="img" aria-label="Πνεύμα Στούντιο">
  <g class="rl-word" fill="var(--logo-word, var(--amber, #8e1a2e))">
    <path transform="translate(-9.34 -6.68)" d="M9.34 0V-86.65H80.34V0H56.79V-67.47H32.89V0ZM183.28 0H152.57L120.9 -61.04H120.42Q120.66 -58.25 120.9 -54.31Q121.14 -50.36 121.33 -46.36Q121.51 -42.35 121.51 -39.08V0H100.76V-86.65H131.34L162.89 -26.45H163.25Q163.13 -29.25 162.89 -33.01Q162.65 -36.77 162.53 -40.65Q162.4 -44.54 162.4 -47.45V-86.65H183.28ZM255.15 0H203.7V-86.65H255.15V-67.84H227.12V-54.24H253.09V-35.44H227.12V-19.05H255.15ZM303 -54.49 317.93 -86.65H343.29L314.77 -33.86V0H291.23V-33.13L262.71 -86.65H288.19ZM392.11 0 374.39 -62.38H373.9Q374.15 -59.95 374.39 -55.82Q374.63 -51.7 374.87 -46.9Q375.12 -42.11 375.12 -37.62V0H354.36V-86.65H385.55L403.63 -25.12H404.12L421.84 -86.65H453.02V0H431.55V-37.98Q431.55 -42.11 431.67 -46.78Q431.79 -51.45 432.03 -55.64Q432.27 -59.83 432.39 -62.25H431.91L414.43 0ZM526.6 0 522.35 -16.26H494.2L489.83 0H464.1L492.38 -87.01H523.56L552.2 0ZM513.74 -49.63Q513.13 -51.94 512.04 -56.25Q510.94 -60.56 509.85 -65.17Q508.76 -69.78 508.15 -72.69Q507.67 -69.78 506.64 -65.41Q505.6 -61.04 504.57 -56.79Q503.54 -52.55 502.81 -49.63L499.05 -35.44H517.5Z"/>
  </g>
  <rect class="rl-box" x="580.86" y="-106.00" width="542.86" height="112.00" rx="13.44" fill="var(--logo-word, var(--amber, #8e1a2e))"/>
  <g class="rl-studio" fill="var(--logo-on, var(--on-amber, #ffffff))">
    <path transform="translate(625.08 -22.00)" d="M2.82 0V-5.8L21.18 -29.25L3.29 -50.12V-56H40.55V-49.73H20.55Q19.45 -49.73 17.57 -49.73Q15.69 -49.73 13.96 -49.76Q12.24 -49.8 11.37 -49.8L29.02 -29.33L10.59 -6.12Q13.57 -6.12 16.51 -6.16Q19.45 -6.2 22.59 -6.2H42.82V0ZM80.68 0H73.62V-49.8H56.13V-56H98.09V-49.8H80.68ZM163.72 -28.08Q163.72 -19.37 160.78 -12.9Q157.84 -6.43 152.11 -2.82Q146.39 0.78 137.91 0.78Q129.21 0.78 123.44 -2.82Q117.68 -6.43 114.86 -12.94Q112.03 -19.45 112.03 -28.16Q112.03 -36.78 114.86 -43.22Q117.68 -49.65 123.44 -53.25Q129.21 -56.86 137.99 -56.86Q146.39 -56.86 152.11 -53.29Q157.84 -49.73 160.78 -43.25Q163.72 -36.78 163.72 -28.08ZM119.48 -28.08Q119.48 -17.49 123.95 -11.41Q128.42 -5.33 137.91 -5.33Q147.48 -5.33 151.88 -11.41Q156.27 -17.49 156.27 -28.08Q156.27 -38.67 151.88 -44.67Q147.48 -50.67 137.99 -50.67Q128.5 -50.67 123.99 -44.67Q119.48 -38.67 119.48 -28.08ZM200.56 -28.47 215.15 -56H222.75L204.09 -21.73V0H197.03V-21.41L178.36 -56H186.05ZM285.4 0H277.16L247.2 -46.51H246.89Q247.05 -43.76 247.28 -39.69Q247.52 -35.61 247.52 -31.29V0H241.01V-56H249.16L279.05 -9.65H279.36Q279.28 -10.9 279.16 -13.41Q279.05 -15.92 278.93 -18.9Q278.81 -21.88 278.81 -24.39V-56H285.4ZM328.98 0H321.92V-49.8H304.43V-56H346.39V-49.8H328.98ZM381.27 0H361.04V-4.08L367.63 -5.57V-50.35L361.04 -51.92V-56H381.27V-51.92L374.69 -50.35V-5.57L381.27 -4.08ZM451.6 -28.08Q451.6 -19.37 448.66 -12.9Q445.72 -6.43 440 -2.82Q434.27 0.78 425.8 0.78Q417.09 0.78 411.33 -2.82Q405.56 -6.43 402.74 -12.94Q399.92 -19.45 399.92 -28.16Q399.92 -36.78 402.74 -43.22Q405.56 -49.65 411.33 -53.25Q417.09 -56.86 425.88 -56.86Q434.27 -56.86 440 -53.29Q445.72 -49.73 448.66 -43.25Q451.6 -36.78 451.6 -28.08ZM407.37 -28.08Q407.37 -17.49 411.84 -11.41Q416.31 -5.33 425.8 -5.33Q435.37 -5.33 439.76 -11.41Q444.15 -17.49 444.15 -28.08Q444.15 -38.67 439.76 -44.67Q435.37 -50.67 425.88 -50.67Q416.39 -50.67 411.88 -44.67Q407.37 -38.67 407.37 -28.08Z"/>
  </g>
</svg>
