<svg xmlns="http://www.w3.org/2000/svg" viewBox="592.1 -142.5 141.9 141.9" class="ruach-logo" role="img" aria-label="Ruach Studio" overflow="hidden">
  <defs>
    <radialGradient id="rlPuff">
      <stop offset="0" stop-color="#942736" stop-opacity="1"/>
      <stop offset="0.5" stop-color="#942736" stop-opacity="0.7"/>
      <stop offset="1" stop-color="#942736" stop-opacity="0"/>
    </radialGradient>
    <filter id="rlCloud" x="-20%" y="-20%" width="140%" height="140%">
      <feTurbulence type="fractalNoise" baseFrequency="0.011 0.017" numOctaves="3" seed="11" result="n">
        <animate attributeName="baseFrequency" values="0.011 0.017; 0.014 0.020; 0.011 0.017" dur="17s" repeatCount="indefinite"/>
      </feTurbulence>
      <feDisplacementMap in="SourceGraphic" in2="n" scale="44" xChannelSelector="R" yChannelSelector="G" result="b"/>
      <feGaussianBlur in="b" stdDeviation="2.2"/>
    </filter>
  </defs>
  <defs><radialGradient id="rlBg" cx="0.5" cy="0.42" r="0.75"><stop offset="0" stop-color="#942736" stop-opacity="0.82"/><stop offset="1" stop-color="#942736"/></radialGradient></defs>
  <rect x="592.1" y="-142.5" width="141.9" height="141.9" fill="url(#rlBg)"/>
  <g class="rl-cloud" filter="url(#rlCloud)" opacity="0.45">
    <animateTransform attributeName="transform" type="translate" values="0 0; 3 -2; -2 1; 0 0" dur="23s" repeatCount="indefinite"/>
    <ellipse cx="663.1" cy="-50.0" rx="162.6" ry="90.3" fill="url(#rlPuff)" opacity="0.92"/>
    <ellipse cx="604.7" cy="-103.8" rx="91.7" ry="43.0" fill="url(#rlPuff)" opacity="0.78"/>
    <ellipse cx="721.5" cy="-103.8" rx="91.7" ry="43.0" fill="url(#rlPuff)" opacity="0.78"/>
    <ellipse cx="663.1" cy="10.2" rx="208.5" ry="32.2" fill="url(#rlPuff)" opacity="0.85"/>
    <ellipse cx="525.5" cy="-46.0" rx="120.9" ry="58.1" fill="url(#rlPuff)" opacity="0.72"/>
    <ellipse cx="800.7" cy="-46.0" rx="120.9" ry="58.1" fill="url(#rlPuff)" opacity="0.72"/>
    <ellipse cx="433.8" cy="-34.0" rx="91.7" ry="30.1" fill="url(#rlPuff)" opacity="0.4"/>
    <ellipse cx="892.4" cy="-34.0" rx="91.7" ry="30.1" fill="url(#rlPuff)" opacity="0.4"/>
  </g>
  <path class="rl-letter" fill="#ffffff" d="M623.6 -30.4V-112.7H663.23Q674.75 -112.7 683.16 -108.94Q691.56 -105.18 696.15 -98.18Q700.73 -91.18 700.73 -81.66Q700.73 -72.14 696.15 -65.26Q691.56 -58.38 683.16 -54.74Q674.75 -51.09 663.23 -51.09H639.01L651.35 -62.5V-30.4ZM672.87 -30.4 652.64 -60.38H682.04L702.5 -30.4ZM651.35 -59.44 639.01 -72.02H661.46Q667.22 -72.02 669.99 -74.61Q672.75 -77.19 672.75 -81.66Q672.75 -86.13 669.99 -88.72Q667.22 -91.3 661.46 -91.3H639.01L651.35 -103.88Z"/>
</svg>
